<?xml version="1.0" standalone="no"?>
<!DOCTYPE svg PUBLIC "-//W3C//DTD SVG 20010904//EN"
 "http://www.w3.org/TR/2001/REC-SVG-20010904/DTD/svg10.dtd">
<svg version="1.0" xmlns="http://www.w3.org/2000/svg"
 width="48.000000pt" height="48.000000pt" viewBox="0 0 48.000000 48.000000"
 preserveAspectRatio="xMidYMid meet">

<g transform="translate(0.000000,48.000000) scale(0.100000,-0.100000)"
fill="#000000" stroke="none">
<path d="M66 401 c-13 -14 -16 -33 -14 -75 3 -54 20 -78 26 -37 3 19 12 21
148 23 193 4 192 22 -2 26 -144 3 -145 3 -142 25 3 22 5 22 158 22 l155 0 3
-107 c2 -87 6 -108 17 -108 12 0 15 20 15 108 0 147 7 142 -192 142 -139 0
-157 -2 -172 -19z"/>
<path d="M226 211 c-20 -86 -20 -101 -2 -101 10 0 20 24 30 69 20 86 20 101 2
101 -10 0 -20 -24 -30 -69z"/>
<path d="M142 227 c-12 -13 -22 -28 -22 -33 0 -14 43 -54 58 -54 17 0 15 25
-3 40 -14 12 -14 15 0 30 36 39 3 56 -33 17z"/>
<path d="M290 238 c0 -6 7 -19 15 -28 14 -15 14 -18 0 -30 -19 -15 -20 -40 -2
-40 15 0 57 41 57 56 0 14 -43 54 -58 54 -7 0 -12 -5 -12 -12z"/>
<path d="M57 234 c-4 -4 -7 -37 -7 -74 0 -99 2 -100 192 -100 137 0 157 2 171
18 21 23 22 62 3 62 -8 0 -16 -10 -18 -22 -3 -23 -5 -23 -158 -23 l-155 0 -3
65 c-3 63 -11 87 -25 74z"/>
</g>
</svg>
